<?xml version="1.0" standalone="no"?>
<!DOCTYPE svg PUBLIC "-//W3C//DTD SVG 20010904//EN"
 "http://www.w3.org/TR/2001/REC-SVG-20010904/DTD/svg10.dtd">
<svg version="1.0" xmlns="http://www.w3.org/2000/svg"
 width="43.000000pt" height="41.000000pt" viewBox="0 0 43.000000 41.000000"
 preserveAspectRatio="xMidYMid meet">

<g transform="translate(0.000000,41.000000) scale(0.100000,-0.100000)"
fill="#000000" stroke="none">
<path d="M228 374 c-11 -11 -10 -55 4 -114 l12 -52 65 7 c35 4 70 9 78 12 15
6 18 63 3 63 -5 0 -10 6 -10 13 0 25 -59 67 -103 73 -23 3 -45 2 -49 -2z m82
-34 c0 -5 6 -10 13 -10 16 0 60 -68 52 -80 -4 -6 -31 -10 -61 -10 -45 0 -54 3
-54 18 0 9 -3 34 -6 55 -6 36 -6 37 25 37 17 0 31 -4 31 -10z"/>
<path d="M125 301 c-31 -13 -61 -52 -75 -95 -10 -31 -10 -46 1 -80 14 -45 62
-96 90 -96 10 0 21 -4 24 -10 8 -13 52 -13 60 0 3 5 13 10 21 10 24 0 82 60
89 91 4 16 3 38 0 50 -6 19 -13 21 -68 17 l-62 -3 -5 60 c-5 55 -7 60 -30 62
-14 1 -34 -2 -45 -6z m49 -52 c3 -17 6 -42 6 -55 0 -32 26 -43 83 -37 46 5 47
5 47 -22 0 -18 -11 -37 -33 -56 -27 -24 -41 -29 -88 -29 -47 0 -59 4 -79 25
-52 55 -52 128 0 182 32 33 56 30 64 -8z"/>
</g>
</svg>
